<svg xmlns="http://www.w3.org/2000/svg" xmlns:svg="http://www.w3.org/2000/svg" id="svg1522" width="100" height="100" fill-rule="evenodd" stroke-linejoin="round" stroke-miterlimit="1.414" clip-rule="evenodd" version="1.1" viewBox="0 0 55 54"><metadata id="metadata1528"/><path style="opacity:1;fill:#00818a;fill-opacity:1;stroke:none;stroke-width:.50854707;stroke-opacity:1" id="path1378" d="m 51.913593,27.02836 -47.3502099,27.337657 0,-54.67531323 z"/><rect style="opacity:1;fill:#00c1ce;fill-opacity:0;stroke:none;stroke-width:2.19131398;stroke-miterlimit:1.41400003;stroke-dasharray:none;stroke-opacity:1" id="rect5783" width="54.989" height="54.99" x=".003" y="-.496" rx="3.883" ry="4.299"/><path id="path1511" d="M 0.47363491,0.17923822 H 54.520635 V 53.819238 H 0.47363491 Z" style="fill:none"/><clipPath id="a"><path id="path1513" d="M0 0h54.047v53.64H0z"/></clipPath><path style="fill:#fff;fill-opacity:1;stroke:none;stroke-width:.98313206;stroke-miterlimit:1.41400003;stroke-dasharray:none;stroke-opacity:1" id="path1518" d="m 8.6823782,25.883815 h 5.5314058 c -0.0015,1.85797 -7.27e-4,12.721946 -7.27e-4,12.721946 0,0 -0.156331,0.78454 -0.828486,0.822002 H 9.5108542 A 0.86450729,0.86450729 0 0 1 8.682367,38.605761 Z m 12.3473268,4.414751 4.408986,7.90736 c 0,0 0.172181,0.378221 0.04971,0.695207 -0.119592,0.309062 -0.434416,0.508619 -0.773015,0.52663 h -4.374408 c -0.455307,-0.02449 -0.515102,-0.07277 -0.735551,-0.443781 L 16.210792,32.480006 A 18.942796,18.942796 0 0 0 21.0297,30.298566 Z M 16.125786,11.039504 c 3.017852,0.734831 5.729522,2.234752 7.173971,5.045121 1.693714,3.501975 1.171406,7.099045 -0.309782,9.522548 -1.7391,2.84639 -4.783607,4.268505 -6.862027,4.905358 7.26e-4,-1.810422 0.0028,-3.620124 0.0043,-5.430547 1.108732,-0.59651 1.994852,-1.540984 2.340655,-2.784433 0.648379,-2.332729 -0.244224,-4.997574 -2.337772,-6.150249 -0.0015,-1.70164 -0.0043,-3.404719 -0.0094,-5.107798 z M 8.6823782,23.981178 V 11.277964 c 0.040347,-0.730509 0.9682485,-0.842174 2.0279908,-0.840733 1.151235,0.0051 2.332008,0.07564 3.494771,0.238459 0.0051,1.616629 0.0079,13.305488 0.0079,13.305488 z"/></svg>